<svg width="18" height="18" viewBox="0 0 18 18" fill="none" xmlns="http://www.w3.org/2000/svg">
<g clip-path="url(#clip0_751:22526)">
<path d="M3.98918 10.8777L3.36269 13.2166L1.07262 13.2652C0.388125 11.9957 0 10.5434 0 9C0 7.50762 0.362813 6.10031 1.00617 4.86105H1.00652L3.04523 5.23476L3.9382 7.26117C3.75117 7.80609 3.64922 8.39109 3.64922 9C3.64992 9.66059 3.76945 10.2937 3.98918 10.8777Z" fill="#FBBB00"/>
<path d="M17.8429 7.31885C17.9462 7.86342 18 8.42557 18 9.00002C18 9.64443 17.9322 10.273 17.8031 10.8791C17.3651 12.9421 16.2204 14.7435 14.6345 16.0186L14.6341 16.0183L12.0663 15.8871L11.7028 13.6181C12.755 13.0012 13.5773 12.0354 14.0108 10.8791H9.19794V7.31885H14.0808H17.8429Z" fill="#518EF8"/>
<path d="M14.6338 16.0179L14.6342 16.0182C13.0922 17.2582 11.1329 18 9.00001 18C5.57263 18 2.59279 16.0843 1.07263 13.2651L3.98919 10.8777C4.74927 12.9062 6.70607 14.3501 9.00001 14.3501C9.98615 14.3501 10.9097 14.0836 11.7025 13.6181L14.6338 16.0179Z" fill="#28B446"/>
<path d="M14.7445 2.07211L11.829 4.45922C11.0088 3.94629 10.0389 3.65027 9.00001 3.65027C6.65403 3.65027 4.66067 5.16059 3.93891 7.26152L1.00688 4.86105H1.00653C2.50419 1.97297 5.52165 0 9.00001 0C11.1836 0 13.1861 0.778008 14.7445 2.07211Z" fill="#F14336"/>
</g>
<defs>
<clipPath id="clip0_751:22526">
<rect width="18" height="18" fill="white"/>
</clipPath>
</defs>
</svg>
