<svg xmlns="http://www.w3.org/2000/svg" xmlns:xlink="http://www.w3.org/1999/xlink" viewBox="0 0 427.24 95.14"><defs><linearGradient id="a" x1="-125.89" y1="306.18" x2="-30.4" y2="306.18" gradientTransform="matrix(1.04, 0, 0, -1.04, 437.17, 782.14)" gradientUnits="userSpaceOnUse"><stop offset="0" stop-color="#fbb413" stop-opacity="0.78"/><stop offset="1" stop-color="#df5f27"/></linearGradient><linearGradient id="b" x1="-125.89" y1="306.18" x2="-30.4" y2="306.18" xlink:href="#a"/><linearGradient id="c" x1="-125.92" y1="305.8" x2="-44.9" y2="289.57" gradientTransform="matrix(1.04, 0, 0, -1.04, 437.17, 782.14)" gradientUnits="userSpaceOnUse"><stop offset="0" stop-color="#fbb413"/><stop offset="1" stop-color="#de5d27"/></linearGradient><linearGradient id="d" x1="-35.48" y1="271.37" x2="-93.8" y2="244.2" xlink:href="#c"/><linearGradient id="e" x1="-117.93" y1="228.12" x2="-102.11" y2="296.79" xlink:href="#c"/></defs><title>TPBank logo</title><path d="M398.49,464.44h0Z" transform="translate(-298.38 -464.43)" style="fill:url(#a)"/><path d="M398,464.43h0Z" transform="translate(-298.38 -464.43)" style="fill:url(#b)"/><path d="M498.57,476.55a70.76,70.76,0,0,0-21.23,4.1v66.82h13.36V521.34c3.35,1.11,8.64,1.59,16.87-.32,18.41-4.26,17.25-21.7,17.25-21.7s1.26-12.69-12.11-19.86c-4.18-2.24-9.2-3-14.13-2.9Zm58.24.22A65.12,65.12,0,0,0,537.72,480v63.85h0s18.22,7.88,33.8,1.31,10.89-22,10.89-22a19.57,19.57,0,0,0-13.24-12.49s14.93-4.69,10.52-21.32c-2.92-9.73-12.75-12.68-22.89-12.6Zm126.93,0v70.62h7.79V520.8l24.23,26.61h9.77l-25.07-26.76,25.17-26.2h-9.77l-24.32,25.15v-42.8Zm-265.23,0v11.85h16.28v58.79h13.37V488.68h16.18V476.83Zm139.87,6.41a16.21,16.21,0,0,1,6.29,1.25c7.42,3.38,7.42,8.64,7.42,8.64s2.72,13.52-11.92,14.56a89.32,89.32,0,0,1-14.46.19V485.23a43.22,43.22,0,0,1,12.68-2Zm-59.45,4.06c14.24.19,12,14.34,12,14.34s-.87,8.82-11.92,9.49a30.37,30.37,0,0,1-8.34-.41V488.39a26.25,26.25,0,0,1,8.24-1.09Zm156.54,6.77a42.75,42.75,0,0,0-18.88,4.23v49.11h8.08V503.55s8.55-4.69,16.25-1.78a10.85,10.85,0,0,1,7.23,10.61v35h8V510.22S677.26,494.26,655.47,494.07Zm-44.6.09s-11.55-.28-17.37,3.95l2.25,5.54s11-5.63,20.28-2.16c0,0,6.2,1.88,5.92,9.86v2.91s-25.9-1.22-30.43,11.64c-4.7,13.33,7.14,19.44,7.14,19.44s3,2.14,13.62,2.17a40.59,40.59,0,0,0,17.09-3.58V511.44S630.4,494.17,610.87,494.17ZM553.34,514.1c7.07,0,15.79,1,18.74,5.88,4.71,7.82,1.32,13.43,1.32,13.43s-4.13,8.55-17.28,7.51a81.84,81.84,0,0,1-10.42-1.36v-25a76.44,76.44,0,0,1,7.64-.44ZM622,519.89v19.53s-14.93,5.17-21.41-1.6.85-13.52.85-13.52S605.52,519.8,622,519.89Z" transform="translate(-298.38 -464.43)" style="fill:#5e2e86"/><path d="M398,464.43H306.59l84,36.1,13.74-23.81c1.48-3.11,1.52-6.12.67-7.76C402.67,464.57,398.91,464.41,398,464.43Z" transform="translate(-298.38 -464.43)" style="fill:url(#c)"/><path d="M398,464.43h.55C398.32,464.43,398.13,464.43,398,464.43Zm6.52,11.74-73,55.33,14.37,24.75a6.87,6.87,0,0,0,6.23,3.3,7.77,7.77,0,0,0,6.61-3.81l45.61-79C404.37,476.55,404.44,476.37,404.52,476.18Z" transform="translate(-298.38 -464.43)" style="fill:url(#d)"/><path d="M335.57,476.9l-29-12.46s-6,0-7.75,5.06a9,9,0,0,0,1.27,8l45.71,78.73Z" transform="translate(-298.38 -464.43)" style="fill:url(#e)"/></svg>