<svg width="146" height="56" viewBox="0 0 146 56" fill="none" xmlns="http://www.w3.org/2000/svg">
<g clip-path="url(#clip0)">
<path d="M76.3092 25.0138H77.615C77.7386 25.014 77.861 24.9899 77.9752 24.9428C78.0894 24.8958 78.1932 24.8267 78.2807 24.7396C78.3681 24.6524 78.4375 24.5489 78.4848 24.435C78.5322 24.3211 78.5565 24.199 78.5565 24.0756V14.4252C78.5561 14.1762 78.4568 13.9376 78.2802 13.7616C78.1037 13.5857 77.8645 13.4869 77.615 13.4869H76.3092C76.06 13.4873 75.8212 13.5863 75.645 13.7622C75.4688 13.938 75.3696 14.1764 75.3692 14.4252V24.0756C75.3692 24.3245 75.4682 24.5631 75.6445 24.739C75.8208 24.915 76.0599 25.0138 76.3092 25.0138" fill="#EE0033"/>
<path d="M67.2232 25.1443C68.0134 25.1443 68.9402 25.1018 69.4264 24.1181L74.93 13.4825H72.9177C72.5272 13.4853 72.1455 13.5996 71.8178 13.8118C71.4902 14.024 71.2302 14.3253 71.0685 14.6802L67.6006 22.0379C67.5184 22.2109 67.3554 22.4938 67.2188 22.4938C67.0822 22.4938 66.925 22.2109 66.8383 22.0379L63.3528 14.6846C63.1903 14.3304 62.9301 14.0297 62.6026 13.8176C62.2751 13.6055 61.894 13.4908 61.5036 13.4869H59.4869L64.9906 24.1225C65.5355 25.1663 66.6518 25.1487 67.2232 25.1487" fill="#EE0033"/>
<path d="M136.89 25.0139C137.14 25.0139 137.379 24.915 137.555 24.7391C137.731 24.5631 137.83 24.3245 137.83 24.0756V23.0495H137.04C136.469 23.0495 135.278 23.0275 134.562 22.5496C133.636 21.9397 133.718 20.852 133.718 20.0691V11.7131C133.718 11.4639 133.619 11.2249 133.442 11.0487C133.265 10.8724 133.026 10.7734 132.776 10.7734H131.472C131.222 10.7734 130.983 10.8724 130.806 11.0487C130.63 11.2249 130.53 11.4639 130.53 11.7131V21.2419C130.53 22.6991 131.049 23.5464 131.974 24.1563C132.873 24.7427 133.909 25.0036 135.842 25.0036L136.89 25.0139Z" fill="#EE0033"/>
<path d="M96.9769 21.2522C96.9769 22.7093 97.4939 23.5567 98.4207 24.1665C99.3197 24.7529 100.355 25.0138 102.288 25.0138H103.337C103.586 25.0138 103.825 24.915 104.002 24.739C104.178 24.5631 104.277 24.3245 104.277 24.0756V23.0494H103.487C102.914 23.0494 101.724 23.0275 101.007 22.5496C100.082 21.9397 100.163 20.852 100.163 20.0691V15.4411H106.811V21.2492C106.811 22.7064 107.328 23.5537 108.254 24.1636C109.152 24.75 110.187 25.0109 112.122 25.0109H113.169C113.293 25.0111 113.415 24.987 113.529 24.9399C113.643 24.8928 113.747 24.8237 113.834 24.7365C113.922 24.6494 113.991 24.5459 114.038 24.432C114.085 24.318 114.109 24.196 114.109 24.0727V23.0465H113.32C112.749 23.0465 111.55 23.0245 110.841 22.5466C109.916 21.9368 109.998 20.849 109.998 20.0662V15.4411H113.082C113.332 15.4411 113.571 15.3422 113.747 15.1663C113.923 14.9903 114.022 14.7517 114.022 14.5029V13.4767H109.992V11.7204C109.992 11.4715 109.893 11.2327 109.717 11.0565C109.541 10.8803 109.301 10.7812 109.052 10.7808H107.746C107.623 10.7808 107.5 10.8051 107.386 10.8523C107.272 10.8996 107.168 10.9688 107.081 11.0561C106.994 11.1434 106.924 11.247 106.877 11.361C106.83 11.475 106.806 11.5971 106.806 11.7204V13.4869H100.157V11.7204C100.157 11.5971 100.133 11.475 100.086 11.361C100.039 11.247 99.9694 11.1434 99.8821 11.0561C99.7948 10.9688 99.6911 10.8996 99.5769 10.8523C99.4628 10.8051 99.3404 10.7808 99.2168 10.7808H97.9111C97.6616 10.7812 97.4225 10.8803 97.2463 11.0565C97.07 11.2327 96.971 11.4715 96.971 11.7204V13.4869H94.9822V14.5131C94.9822 14.7619 95.0813 15.0006 95.2576 15.1765C95.4339 15.3525 95.673 15.4513 95.9223 15.4513H96.9769V21.2522Z" fill="#EE0033"/>
<path d="M93.5986 19.6631C94.1964 19.1852 94.2787 18.5108 94.2787 17.9245C94.2787 16.4673 93.9247 15.0306 92.237 14.1833C90.9019 13.509 89.1525 13.4503 87.4693 13.4503C86.1077 13.4503 83.6504 13.4503 82.0758 14.5381C80.5012 15.6258 80.3543 17.2003 80.3543 19.3596C80.3543 20.8813 80.4366 22.469 81.3825 23.5567C82.5811 24.9054 84.3201 25.0139 85.7889 25.0139H92.8642C92.9877 25.0141 93.11 24.9899 93.2242 24.9428C93.3383 24.8958 93.442 24.8267 93.5294 24.7395C93.6167 24.6523 93.6859 24.5488 93.7331 24.4349C93.7803 24.321 93.8045 24.1989 93.8043 24.0756V23.0495H86.754C85.5789 23.0495 84.2482 22.919 83.8398 21.6788C83.7128 21.1591 83.6487 20.6261 83.6489 20.0912H92.0387C92.6101 20.0912 93.155 20.0047 93.5913 19.6514L93.5986 19.6631ZM90.2688 18.1414H85.7361C84.5845 18.1414 83.6504 18.6677 83.6504 19.3142V18.1414C83.6768 17.3806 83.6503 16.7487 84.304 16.1624C85.175 15.3795 86.4837 15.4015 87.3268 15.4015C88.2257 15.4015 89.2612 15.4455 90.0514 15.9234C90.3245 16.0809 90.5528 16.3053 90.7147 16.5754C90.8767 16.8456 90.9669 17.1524 90.9768 17.4671C90.9768 17.772 90.896 18.1414 90.2688 18.1414" fill="#EE0033"/>
<path d="M120.261 25.0139H127.328C127.452 25.0141 127.574 24.99 127.688 24.9429C127.803 24.8958 127.906 24.8267 127.994 24.7395C128.081 24.6524 128.15 24.5489 128.197 24.4349C128.244 24.321 128.269 24.1989 128.268 24.0757V23.0495H121.212C120.037 23.0495 118.707 22.919 118.298 21.6788C118.172 21.159 118.108 20.6261 118.107 20.0912H126.5C127.071 20.0912 127.616 20.0047 128.053 19.6514C128.652 19.1735 128.734 18.4991 128.734 17.9127C128.734 16.4556 128.38 15.0189 126.691 14.1716C125.356 13.4972 123.606 13.4386 121.923 13.4386C120.562 13.4386 118.104 13.4386 116.53 14.5263C114.955 15.6141 114.813 17.2003 114.813 19.3597C114.813 20.8813 114.895 22.469 115.848 23.5567C117.047 24.9054 118.786 25.0139 120.255 25.0139H120.261ZM118.109 18.1414C118.137 17.3806 118.109 16.7488 118.762 16.1624C119.635 15.3795 120.942 15.4015 121.787 15.4015C122.686 15.4015 123.72 15.4455 124.51 15.9234C124.783 16.0807 125.012 16.3051 125.174 16.5752C125.336 16.8453 125.427 17.1523 125.437 17.4671C125.437 17.772 125.354 18.1414 124.727 18.1414H120.194C119.043 18.1414 118.109 18.6677 118.109 19.3142V18.1414Z" fill="#EE0033"/>
<path d="M76.9629 12.3992H77.615C77.8647 12.3992 78.1042 12.3002 78.2808 12.124C78.4573 11.9478 78.5565 11.7088 78.5565 11.4595V11.2001C78.5565 11.0767 78.5322 10.9546 78.4848 10.8407C78.4375 10.7268 78.3681 10.6233 78.2807 10.5361C78.1932 10.449 78.0894 10.3799 77.9752 10.3328C77.861 10.2858 77.7386 10.2616 77.615 10.2618H76.3107C76.1871 10.2616 76.0647 10.2858 75.9505 10.3328C75.8363 10.3799 75.7325 10.449 75.645 10.5361C75.5576 10.6233 75.4882 10.7268 75.4409 10.8407C75.3936 10.9546 75.3692 11.0767 75.3692 11.2001V13.487H75.3854C75.475 12.9548 76.0816 12.3992 76.9658 12.3992" fill="#EE0033"/>
<path d="M59.4869 42.5762V32.9976C59.4869 31.6909 60.2894 31.0376 61.8943 31.0376H74.1648C75.9107 31.0376 77.2649 31.3352 78.2275 31.9304C79.1901 32.5256 79.6718 33.5415 79.6728 34.9781V40.8024C79.6689 41.2778 79.4762 41.7322 79.1369 42.0659C78.7976 42.3995 78.3395 42.5852 77.8632 42.5821H76.5413V35.6525C76.5413 34.7543 76.3097 34.0868 75.8466 33.65C75.3834 33.2131 74.6255 32.9956 73.5728 32.9976H71.1434V40.8552C71.1399 41.3149 70.9537 41.7544 70.6257 42.0771C70.2976 42.3998 69.8547 42.5793 69.3941 42.5762H68.0148V32.9976H63.4175C62.8828 32.9976 62.6155 33.215 62.6155 33.65V40.8522C62.614 41.0803 62.5674 41.3058 62.4785 41.5159C62.3896 41.726 62.26 41.9166 62.0973 42.0767C61.9346 42.2368 61.7418 42.3633 61.5301 42.449C61.3183 42.5347 61.0917 42.578 60.8632 42.5762H59.4869Z" fill="#EE0033"/>
<path d="M97.5468 42.5762V32.9976C97.5468 31.6909 98.3488 31.0376 99.9527 31.0376H104.925C106.671 31.0376 108.025 31.3352 108.989 31.9304C109.952 32.5256 110.434 33.5415 110.433 34.9781V42.5762H107.304V35.6525C107.304 34.7543 107.073 34.0868 106.609 33.65C106.146 33.2131 105.389 32.9956 104.337 32.9976H101.477C100.941 32.9976 100.673 33.215 100.674 33.65V42.5762H97.5468Z" fill="#EE0033"/>
<path d="M141.602 31.0376L133.155 46.2998H129.974L132.139 42.5337L125.83 31.0376H127.39C127.891 31.0358 128.382 31.1716 128.81 31.4302C129.239 31.6888 129.587 32.0602 129.818 32.5036L133.609 39.895L137.713 32.3379C137.93 31.9419 138.25 31.6117 138.639 31.3821C139.029 31.1525 139.473 31.0319 139.925 31.0332L141.602 31.0376Z" fill="#EE0033"/>
<path d="M96.1485 36.8721C96.1485 39.1082 95.5561 40.6538 94.3712 41.5089C93.1864 42.3641 91.2642 42.7921 88.6047 42.7931C85.949 42.7931 84.0288 42.3651 82.844 41.5089C81.6591 40.6528 81.0677 39.1072 81.0696 36.8721C81.0696 34.6653 81.667 33.1338 82.8616 32.2777C84.0562 31.4216 85.9706 30.9935 88.6047 30.9935C91.2426 30.9935 93.159 31.4216 94.3536 32.2777C95.5482 33.1338 96.1451 34.6653 96.1441 36.8721H96.1485ZM84.301 36.8721C84.301 38.3087 84.6217 39.3281 85.2631 39.9301C85.9045 40.5321 87.0183 40.8336 88.6047 40.8346C90.191 40.8346 91.3048 40.5331 91.9462 39.9301C92.5876 39.3271 92.9088 38.3077 92.9097 36.8721C92.9097 35.4491 92.5886 34.44 91.9462 33.8448C91.3038 33.2497 90.19 32.9521 88.6047 32.9521C87.0183 32.9521 85.9045 33.2497 85.2631 33.8448C84.6217 34.44 84.301 35.4491 84.301 36.8721Z" fill="#EE0033"/>
<path d="M117.449 42.4824H124.444C124.566 42.4826 124.687 42.4587 124.8 42.4122C124.913 42.3656 125.016 42.2973 125.102 42.2111C125.189 42.1249 125.257 42.0226 125.304 41.9099C125.351 41.7972 125.375 41.6764 125.375 41.5545V40.5459H118.392C117.233 40.5459 115.913 40.4169 115.509 39.1898C115.383 38.6759 115.32 38.1488 115.319 37.6198H123.62C124.187 37.6198 124.726 37.5333 125.156 37.1888C125.744 36.7153 125.83 36.0483 125.83 35.4678C125.83 34.0267 125.479 32.6062 123.809 31.7662C122.487 31.1006 120.763 31.0332 119.093 31.0332C117.744 31.0332 115.319 31.0332 113.757 32.1078C112.194 33.1823 112.059 34.7553 112.059 36.8853C112.059 38.3909 112.139 39.9639 113.087 41.0384C114.272 42.3725 115.997 42.4795 117.452 42.4795L117.449 42.4824ZM115.322 35.6803C115.35 34.9268 115.322 34.3038 115.969 33.7218C116.832 32.9478 118.125 32.9697 118.961 32.9697C119.849 32.9697 120.87 33.0123 121.656 33.4858C121.926 33.6416 122.152 33.8637 122.313 34.131C122.473 34.3982 122.562 34.7019 122.572 35.0133C122.572 35.3138 122.492 35.6803 121.872 35.6803H117.385C116.245 35.6803 115.319 36.2007 115.319 36.8428L115.322 35.6803Z" fill="#EE0033"/>
</g>
<g clip-path="url(#clip1)">
<path d="M28.0543 51.4556C41.0336 51.4556 51.5553 40.9542 51.5553 28.0001C51.5553 15.0459 41.0336 4.54456 28.0543 4.54456C15.0751 4.54456 4.55332 15.0459 4.55332 28.0001C4.55332 40.9542 15.0751 51.4556 28.0543 51.4556Z" fill="whitesmoke"/>
<path d="M25.4912 13.3025H22.3153C21.9168 13.3027 21.5223 13.3812 21.1542 13.5336C20.7861 13.686 20.4517 13.9092 20.1701 14.1906C19.8884 14.472 19.6651 14.8059 19.5128 15.1735C19.3604 15.541 19.2821 15.9348 19.2823 16.3326V39.6675C19.2821 40.0653 19.3605 40.4593 19.5129 40.827C19.6653 41.1946 19.8888 41.5286 20.1706 41.81C20.4524 42.0914 20.787 42.3146 21.1552 42.4669C21.5235 42.6192 21.9182 42.6976 22.3168 42.6976H25.4927C25.694 42.6976 25.8871 42.6179 26.0297 42.4759C26.1722 42.334 26.2524 42.1414 26.2528 41.9404V39.6778C26.2528 39.4766 26.1727 39.2836 26.0302 39.1414C25.8876 38.9991 25.6943 38.9192 25.4927 38.9192H20.5609V17.0809H25.4912C25.6926 17.0809 25.8857 17.0012 26.0282 16.8592C26.1707 16.7173 26.2509 16.5247 26.2513 16.3237V14.0611C26.2513 13.8599 26.1712 13.667 26.0287 13.5247C25.8862 13.3824 25.6928 13.3025 25.4912 13.3025V13.3025Z" fill="#EE0033"/>
<path d="M33.7933 13.3025H30.616C30.4146 13.3029 30.2217 13.383 30.0795 13.5252C29.9372 13.6674 29.8573 13.8602 29.8573 14.0611V16.3237C29.8577 16.5244 29.9378 16.7168 30.08 16.8587C30.2222 17.0006 30.4149 17.0805 30.616 17.0809H35.5477V38.9236H30.616C30.4146 38.924 30.2217 39.0041 30.0795 39.1463C29.9372 39.2885 29.8573 39.4813 29.8573 39.6822V41.9448C29.8577 42.1455 29.9378 42.3379 30.08 42.4798C30.2222 42.6217 30.4149 42.7016 30.616 42.702H33.7933C34.1919 42.702 34.5867 42.6236 34.9549 42.4713C35.3232 42.319 35.6578 42.0958 35.9396 41.8144C36.2214 41.533 36.4448 41.199 36.5972 40.8314C36.7497 40.4637 36.828 40.0698 36.8278 39.6719V16.3326C36.828 15.9347 36.7497 15.5407 36.5972 15.1731C36.4448 14.8055 36.2214 14.4715 35.9396 14.1901C35.6578 13.9087 35.3232 13.6855 34.9549 13.5332C34.5867 13.3809 34.1919 13.3025 33.7933 13.3025V13.3025Z" fill="#EE0033"/>
</g>
<defs>
<clipPath id="clip0">
<rect width="82.1066" height="46.911" fill="white" transform="translate(59.4869 4.83777)"/>
</clipPath>
<clipPath id="clip1">
<rect width="47.002" height="46.911" fill="white" transform="translate(4.55332 4.54456)"/>
</clipPath>
</defs>
</svg>
